# xmcd CD Database Entry
#
# Track frame offsets:
# 150
# 20144
# 42232
# 62941
# 82116
# 100311
# 123300
# 143593
# 164786
# 182462
# 200569
# 216181
# 231341
# 247504
#
# Disc length: 3607 seconds
#
# Revision: 2
# Processed by: cddbd v1.4PL0 Copyright (c) Steve Scherf et al.
# Submitted via: tcd 2.0b
#
DISCID=c80e150e
DTITLE=Namie Amuro -  Original Tracks vol.1
DYEAR=1900
DGENRE=
TTITLE0=Mr. U.S.A
TTITLE1=Koi No Cute Beat
TTITLE2=Dancing Junk
TTITLE3=Rainbow Moon
TTITLE4=Aishite Mascot
TTITLE5=wagamama Wo Yurushite
TTITLE6=Paradise Train
TTITLE7=Kanashiki Broken Boy
TTITLE8=Try me ~Watashi no Shinjite
TTITLE9=Memories ~Ashita No Tame Ni
TTITLE10=Tayio no Season
TTITLE11=Heart Ni Hi Wo Tsukete
TTITLE12=Stop the music
TTITLE13=Good - Night
EXTD=
EXTT0=
EXTT1=
EXTT2=
EXTT3=
EXTT4=
EXTT5=
EXTT6=
EXTT7=
EXTT8=
EXTT9=
EXTT10=
EXTT11=
EXTT12=
EXTT13=
PLAYORDER=
